<?xml version="1.0" encoding="iso-8859-1"?>
<!-- Generator: Adobe Illustrator 19.0.0, SVG Export Plug-In . SVG Version: 6.00 Build 0)  -->
<svg version="1.1" id="Layer_1" xmlns="http://www.w3.org/2000/svg" xmlns:xlink="http://www.w3.org/1999/xlink" x="0px" y="0px"
	 viewBox="0 0 512 512" style="enable-background:new 0 0 512 512;" xml:space="preserve">
<g>
	<g>
		<path d="M512,307.109c0-27.302-19.993-50.012-46.104-54.287v-28.244c14.32-2.498,25.244-15.011,25.244-30.034
			c0-79.042-64.305-143.348-143.348-143.348H164.209c-79.042,0-143.348,64.305-143.348,143.348
			c0,15.023,10.924,27.536,25.244,30.034v28.244C19.993,257.096,0,279.807,0,307.109c0,20.024,10.756,37.577,26.789,47.202
			c-3.722,5.056-5.927,11.294-5.927,18.04v24.829c0,35.082,28.542,63.624,63.623,63.624h343.031
			c35.082,0,63.623-28.542,63.623-63.624v-24.829c0-6.746-2.206-12.983-5.927-18.04C501.245,344.687,512,327.132,512,307.109z
			 M41.136,194.544c0-67.863,55.21-123.074,123.074-123.074h183.583c67.863,0,123.074,55.21,123.074,123.074
			c0,5.636-4.586,10.222-10.222,10.222H51.358C45.721,204.766,41.136,200.182,41.136,194.544z M66.378,252.09v-27.048h379.243
			v27.048H66.378z M387.115,272.364l-32.761,32.761l-32.761-32.761H387.115z M470.865,397.18c0,23.903-19.447,43.35-43.349,43.35
			H84.485c-23.903,0-43.349-19.447-43.349-43.35v-24.829c0-5.636,4.586-10.222,10.222-10.222h3.661H456.98h3.663
			c5.636,0,10.222,4.586,10.222,10.222V397.18z M456.98,341.855H55.02c-19.159,0-34.746-15.587-34.746-34.746
			s15.587-34.746,34.746-34.746h1.222h236.678l54.265,54.265c1.979,1.98,4.574,2.969,7.168,2.969c2.594,0,5.189-0.989,7.168-2.969
			l54.202-54.202l-0.064-0.064h40.101h1.222c19.159,0,34.747,15.587,34.747,34.746S476.139,341.855,456.98,341.855z"/>
	</g>
</g>
<g>
	<g>
		<circle cx="156.637" cy="102.722" r="10.137"/>
	</g>
</g>
<g>
	<g>
		<circle cx="355.376" cy="102.722" r="10.137"/>
	</g>
</g>
<g>
	<g>
		<circle cx="222.879" cy="102.722" r="10.137"/>
	</g>
</g>
<g>
	<g>
		<circle cx="289.121" cy="102.722" r="10.137"/>
	</g>
</g>
<g>
</g>
<g>
</g>
<g>
</g>
<g>
</g>
<g>
</g>
<g>
</g>
<g>
</g>
<g>
</g>
<g>
</g>
<g>
</g>
<g>
</g>
<g>
</g>
<g>
</g>
<g>
</g>
<g>
</g>
</svg>
