<?xml version="1.0"?>
<svg xmlns="http://www.w3.org/2000/svg" viewBox="0 0 64 64" width="512" height="512"><g id="gift_box-celebration-surprise-4" data-name="gift box-celebration-surprise"><path d="M61,17H49.414l3.293-3.293A1,1,0,0,0,52,12H47V6a1,1,0,0,0-1.625-.781l-8.389,6.712A.993.993,0,0,0,36,11H28a.993.993,0,0,0-.986.931L18.625,5.219A1,1,0,0,0,17,6v6H12a1,1,0,0,0-.707,1.707L14.586,17H3a1,1,0,0,0-1,1v9a1,1,0,0,0,1,1H6V58a1,1,0,0,0,1,1H57a1,1,0,0,0,1-1V28h3a1,1,0,0,0,1-1V18A1,1,0,0,0,61,17ZM46,14h3.586l-3,3H43.414l1.293-1.293-1.414-1.414L40.586,17H37V14.48l8-6.4V13A1,1,0,0,0,46,14ZM35,26H29V19h6Zm0-13v4H29V13ZM14.414,14H18a1,1,0,0,0,1-1V8.081l8,6.4V17H23.394L20.71,14.3l-1.42,1.41L20.576,17H17.414ZM4,19H27v7H4Zm23,9v8H8V28ZM8,38H27v4H8ZM8,54h4V52H8V44H27V57H8Zm21,3V28h6V57ZM56,42H37V38H56ZM37,57V44H56V57ZM56,36H37V28H56Zm4-10H37V19H60Z"/><rect x="14" y="52" width="2" height="2"/></g></svg>
