<?xml version="1.0" encoding="iso-8859-1"?>
<!-- Generator: Adobe Illustrator 19.0.0, SVG Export Plug-In . SVG Version: 6.00 Build 0)  -->
<svg version="1.1" id="Capa_1" xmlns="http://www.w3.org/2000/svg" xmlns:xlink="http://www.w3.org/1999/xlink" x="0px" y="0px"
	 viewBox="0 0 174.078 174.078" style="enable-background:new 0 0 174.078 174.078;" xml:space="preserve">
	<defs><style>.a{fill:#3880ff;}</style></defs>
<g>
	<g>
		<path class="a" d="M36.882,30.783c-0.41-1.841-2.234-3.002-4.07-2.596C15.775,31.954,3.412,47.368,3.412,64.838v0.957
			c0,1.884,1.529,3.413,3.413,3.413s3.413-1.527,3.415-3.415v-0.957c0-14.293,10.112-26.902,24.045-29.983
			C36.127,34.445,37.288,32.623,36.882,30.783z"/>
	</g>
</g>
<g>
	<g>
		<path class="a" d="M143.359,13.651H34.132c-1.884,0-3.413,1.529-3.413,3.413v29.182c0,1.884,1.529,3.413,3.413,3.413
			s3.413-1.529,3.413-3.413V20.478h102.4v26.216c0,1.884,1.529,3.413,3.413,3.413s3.413-1.529,3.413-3.413V17.065
			C146.772,15.181,145.243,13.651,143.359,13.651z"/>
	</g>
</g>
<g>
	<g>
		<path class="a" d="M143.359,34.131c-9.411,0-17.067-7.656-17.067-17.067c0-1.884-1.529-3.413-3.413-3.413c-1.884,0-3.413,1.529-3.413,3.413
			c0,13.175,10.718,23.893,23.893,23.893c1.884,0,3.413-1.529,3.413-3.413S145.243,34.131,143.359,34.131z"/>
	</g>
</g>
<g>
	<g>
		<path class="a" d="M138.78,0.845c-0.742-0.649-1.714-0.942-2.7-0.816L33.68,13.682c-1.78,0.236-3.072,1.816-2.954,3.61
			c0.119,1.794,1.609,3.186,3.406,3.186h102.4c1.884,0,3.413-1.529,3.413-3.412V3.413C139.946,2.43,139.521,1.493,138.78,0.845z
			 M133.119,13.651h-47.56l47.56-6.342V13.651z"/>
	</g>
</g>
<g>
	<g>
		<path class="a" d="M152.479,44.371H21.599c-10.028,0-18.186,8.158-18.186,18.186v93.334c0,10.028,8.158,18.186,18.186,18.186h130.881
			c10.028,0,18.186-8.16,18.186-18.186V62.558C170.666,52.529,162.508,44.371,152.479,44.371z M163.839,155.892
			c0,6.263-5.096,11.36-11.36,11.36H21.599c-6.263,0-11.36-5.096-11.36-11.36V62.558c0-6.263,5.096-11.36,11.36-11.36h130.881
			c6.263,0,11.36,5.096,11.36,11.36V155.892z"/>
	</g>
</g>
<g>
	<g>
		<path class="a" d="M167.252,92.158h-39.253c-12.233,0-22.187,9.953-22.187,22.187c0,12.233,9.953,22.187,22.187,22.187h39.253
			c1.884,0,3.413-1.529,3.413-3.413V95.571C170.666,93.687,169.137,92.158,167.252,92.158z M163.839,129.705h-35.84
			c-8.47,0-15.36-6.89-15.36-15.36c0-8.47,6.89-15.36,15.36-15.36h35.84V129.705z"/>
	</g>
</g>
<g>
	<g>
		<path class="a" d="M127.999,102.398c-6.586,0-11.947,5.361-11.947,11.947c0,6.586,5.361,11.947,11.947,11.947
			c6.586,0,11.947-5.361,11.947-11.947C139.946,107.759,134.585,102.398,127.999,102.398z M127.999,119.465
			c-2.823,0-5.12-2.297-5.12-5.12c0-2.823,2.297-5.12,5.12-5.12c2.823,0,5.12,2.297,5.12,5.12
			C133.119,117.168,130.822,119.465,127.999,119.465z"/>
	</g>
</g>
<g>
	<g>
		<path class="a" d="M13.652,61.438H6.826c-1.884,0-3.413,1.529-3.413,3.413c0,1.884,1.529,3.413,3.413,3.413h6.827
			c1.884,0,3.413-1.529,3.413-3.413C17.066,62.967,15.537,61.438,13.652,61.438z"/>
	</g>
</g>
<g>
	<g>
		<g>
			<path class="a" d="M67.023,61.438H53.682c-1.884,0-3.413,1.529-3.413,3.413c0,1.884,1.529,3.413,3.413,3.413h13.341
				c1.886,0,3.413-1.529,3.413-3.413C70.437,62.967,68.907,61.438,67.023,61.438z"/>
			<path class="a" d="M40.339,61.438H26.997c-1.884,0-3.413,1.529-3.413,3.413c0,1.884,1.529,3.413,3.413,3.413h13.343
				c1.884,0,3.413-1.529,3.413-3.413C43.753,62.967,42.224,61.438,40.339,61.438z"/>
			<path class="a" d="M147.083,61.438h-13.341c-1.884,0-3.413,1.529-3.413,3.413c0,1.884,1.529,3.413,3.413,3.413h13.341
				c1.884,0,3.413-1.529,3.413-3.413C150.496,62.967,148.967,61.438,147.083,61.438z"/>
			<path class="a" d="M93.71,61.438H80.368c-1.884,0-3.413,1.529-3.413,3.413c0,1.884,1.529,3.413,3.413,3.413H93.71
				c1.886,0,3.413-1.529,3.413-3.413C97.124,62.967,95.595,61.438,93.71,61.438z"/>
			<path class="a" d="M120.398,61.438h-13.343c-1.884,0-3.413,1.529-3.413,3.413c0,1.884,1.529,3.413,3.413,3.413h13.343
				c1.884,0,3.413-1.529,3.413-3.413C123.811,62.967,122.282,61.438,120.398,61.438z"/>
		</g>
	</g>
</g>
<g>
	<g>
		<path class="a" d="M167.252,61.438h-6.827c-1.884,0-3.413,1.529-3.413,3.413c0,1.884,1.529,3.413,3.413,3.413h6.827
			c1.884,0,3.413-1.529,3.413-3.413C170.666,62.967,169.137,61.438,167.252,61.438z"/>
	</g>
</g>
</svg>
