<svg xmlns="http://www.w3.org/2000/svg" width="79.999" height="50.605" viewBox="0 0 79.999 50.605"><defs><style>.a{fill:#3880ff;}</style></defs><g transform="translate(0 -94.062)"><g transform="translate(0 94.062)"><g transform="translate(0 0)"><path class="a" d="M74.4,115.515l-2.072-8.287A1.253,1.253,0,0,0,73.319,106v-1.336a5.267,5.267,0,0,0-5.261-5.261H58.622V96.651a2.592,2.592,0,0,0-2.589-2.589H7.933a2.592,2.592,0,0,0-2.589,2.589v22.714a1.253,1.253,0,0,0,2.505,0V96.651a.083.083,0,0,1,.083-.083h48.1a.083.083,0,0,1,.083.083v22.714a1.253,1.253,0,0,0,2.505,0v-1.42H73.4a4.1,4.1,0,0,1,3.892,2.839H73.4a1.253,1.253,0,0,0-1.253,1.253v2.672a3.929,3.929,0,0,0,3.925,3.925h1.42v5.511H74.218a7.931,7.931,0,0,0-14.994,0h-.6v-9.436a1.253,1.253,0,1,0-2.505,0v9.436H30.127a7.931,7.931,0,0,0-14.994,0h-7.2a.083.083,0,0,1-.083-.083v-2.756h5.428a1.253,1.253,0,1,0,0-2.505H1.253a1.253,1.253,0,1,0,0,2.505H5.344v2.756a2.592,2.592,0,0,0,2.589,2.589H14.7c0,.028,0,.055,0,.083a7.933,7.933,0,1,0,15.866,0c0-.028,0-.056,0-.083H58.79c0,.028,0,.055,0,.083a7.933,7.933,0,1,0,15.866,0c0-.028,0-.056,0-.083h4.094A1.253,1.253,0,0,0,80,135.4V122.037A6.607,6.607,0,0,0,74.4,115.515Zm-15.777-13.6h9.436a2.759,2.759,0,0,1,2.756,2.756v.083H58.622Zm0,13.528v-8.184h11.13L71.8,115.44ZM22.63,142.162a5.428,5.428,0,1,1,5.428-5.428A5.434,5.434,0,0,1,22.63,142.162Zm44.091,0a5.428,5.428,0,1,1,5.428-5.428A5.434,5.434,0,0,1,66.722,142.162Zm10.772-16.033h-1.42a1.421,1.421,0,0,1-1.42-1.42v-1.42h2.839v2.839Z" transform="translate(0 -94.062)"/></g></g><g transform="translate(20.042 134.145)"><path class="a" d="M130.856,350.6a2.589,2.589,0,1,0,2.589,2.589A2.592,2.592,0,0,0,130.856,350.6Z" transform="translate(-128.267 -350.597)"/></g><g transform="translate(64.133 134.145)"><path class="a" d="M413.044,350.6a2.589,2.589,0,1,0,2.589,2.589A2.592,2.592,0,0,0,413.044,350.6Z" transform="translate(-410.455 -350.597)"/></g><g transform="translate(32.066 128.801)"><g transform="translate(0 0)"><path class="a" d="M225.185,316.393H206.48a1.253,1.253,0,0,0,0,2.505h18.705a1.253,1.253,0,0,0,0-2.505Z" transform="translate(-205.227 -316.393)"/></g></g><g transform="translate(2.672 123.456)"><g transform="translate(0 0)"><path class="a" d="M34.388,282.188H18.355a1.253,1.253,0,0,0,0,2.505H34.388a1.253,1.253,0,0,0,0-2.505Z" transform="translate(-17.102 -282.188)"/></g></g><g transform="translate(22.714 106.087)"><path class="a" d="M166.213,171.389a1.253,1.253,0,0,0-1.771,0L153.3,182.529l-5.795-5.795a1.253,1.253,0,0,0-1.771,1.771l6.681,6.681a1.252,1.252,0,0,0,1.771,0l12.025-12.025A1.253,1.253,0,0,0,166.213,171.389Z" transform="translate(-145.37 -171.023)"/></g></g></svg>